<svg xmlns="http://www.w3.org/2000/svg" width="800" height="400" viewBox="0 0 800 400">
  <!-- Light grey background -->
  <rect width="800" height="400" fill="#fafafa"/>
  
  <!-- Purple color: #8b5cf6 (similar to the header) -->
  
  <!-- Connecting line (horizontal through bottom of all icons) - slightly lower -->
  <line x1="80" y1="230" x2="720" y2="230" stroke="#8b5cf6" stroke-width="1.75"/>
  
  <!-- Center building-2 icon (size 30) -->
  <g transform="translate(388, 206.25) scale(1.25)">
    <path d="M6 22V4a2 2 0 0 1 2-2h8a2 2 0 0 1 2 2v18Z" fill="none" stroke="#8b5cf6" stroke-width="1.75" stroke-linecap="round" stroke-linejoin="round"/>
    <path d="M6 12H4a2 2 0 0 0-2 2v6a2 2 0 0 0 2 2h2" fill="none" stroke="#8b5cf6" stroke-width="1.75" stroke-linecap="round" stroke-linejoin="round"/>
    <path d="M18 9h2a2 2 0 0 1 2 2v9a2 2 0 0 1-2 2h-2" fill="none" stroke="#8b5cf6" stroke-width="1.75" stroke-linecap="round" stroke-linejoin="round"/>
    <path d="M10 6h4" fill="none" stroke="#8b5cf6" stroke-width="1.75" stroke-linecap="round" stroke-linejoin="round"/>
    <path d="M10 10h4" fill="none" stroke="#8b5cf6" stroke-width="1.75" stroke-linecap="round" stroke-linejoin="round"/>
    <path d="M10 14h4" fill="none" stroke="#8b5cf6" stroke-width="1.75" stroke-linecap="round" stroke-linejoin="round"/>
    <path d="M10 18h4" fill="none" stroke="#8b5cf6" stroke-width="1.75" stroke-linecap="round" stroke-linejoin="round"/>
  </g>
  
  <!-- Left side icons (size 16) aligned horizontally -->
  <!-- Additional Building icon -->
  <g transform="translate(52, 214.58) scale(0.667)">
    <rect width="16" height="20" x="4" y="2" rx="2" ry="2" fill="none" stroke="#8b5cf6" stroke-width="1.75" stroke-linecap="round" stroke-linejoin="round"/>
    <path d="M9 22v-4h6v4" fill="none" stroke="#8b5cf6" stroke-width="1.75" stroke-linecap="round" stroke-linejoin="round"/>
    <path d="M8 6h.01" fill="none" stroke="#8b5cf6" stroke-width="1.75" stroke-linecap="round" stroke-linejoin="round"/>
    <path d="M16 6h.01" fill="none" stroke="#8b5cf6" stroke-width="1.75" stroke-linecap="round" stroke-linejoin="round"/>
    <path d="M12 6h.01" fill="none" stroke="#8b5cf6" stroke-width="1.75" stroke-linecap="round" stroke-linejoin="round"/>
    <path d="M12 10h.01" fill="none" stroke="#8b5cf6" stroke-width="1.75" stroke-linecap="round" stroke-linejoin="round"/>
    <path d="M12 14h.01" fill="none" stroke="#8b5cf6" stroke-width="1.75" stroke-linecap="round" stroke-linejoin="round"/>
    <path d="M16 10h.01" fill="none" stroke="#8b5cf6" stroke-width="1.75" stroke-linecap="round" stroke-linejoin="round"/>
    <path d="M16 14h.01" fill="none" stroke="#8b5cf6" stroke-width="1.75" stroke-linecap="round" stroke-linejoin="round"/>
    <path d="M8 10h.01" fill="none" stroke="#8b5cf6" stroke-width="1.75" stroke-linecap="round" stroke-linejoin="round"/>
    <path d="M8 14h.01" fill="none" stroke="#8b5cf6" stroke-width="1.75" stroke-linecap="round" stroke-linejoin="round"/>
  </g>
  
  <!-- House icon -->
  <g transform="translate(192, 214.58) scale(0.667)">
    <path d="M15 21v-8a1 1 0 0 0-1-1h-4a1 1 0 0 0-1 1v8" fill="none" stroke="#8b5cf6" stroke-width="1.75" stroke-linecap="round" stroke-linejoin="round"/>
    <path d="M3 10a2 2 0 0 1 .709-1.528l7-5.999a2 2 0 0 1 2.582 0l7 5.999A2 2 0 0 1 21 10v9a2 2 0 0 1-2 2H5a2 2 0 0 1-2-2z" fill="none" stroke="#8b5cf6" stroke-width="1.75" stroke-linecap="round" stroke-linejoin="round"/>
  </g>
  
  <!-- Hospital icon -->
  <g transform="translate(272, 214.58) scale(0.667)">
    <path d="M12 6v4" fill="none" stroke="#8b5cf6" stroke-width="1.75" stroke-linecap="round" stroke-linejoin="round"/>
    <path d="M14 14h-4" fill="none" stroke="#8b5cf6" stroke-width="1.75" stroke-linecap="round" stroke-linejoin="round"/>
    <path d="M14 18h-4" fill="none" stroke="#8b5cf6" stroke-width="1.75" stroke-linecap="round" stroke-linejoin="round"/>
    <path d="M14 8h-4" fill="none" stroke="#8b5cf6" stroke-width="1.75" stroke-linecap="round" stroke-linejoin="round"/>
    <path d="M18 12h2a2 2 0 0 1 2 2v6a2 2 0 0 1-2 2H4a2 2 0 0 1-2-2v-9a2 2 0 0 1 2-2h2" fill="none" stroke="#8b5cf6" stroke-width="1.75" stroke-linecap="round" stroke-linejoin="round"/>
    <path d="M18 22V4a2 2 0 0 0-2-2H8a2 2 0 0 0-2 2v18" fill="none" stroke="#8b5cf6" stroke-width="1.75" stroke-linecap="round" stroke-linejoin="round"/>
  </g>
  
  <!-- Warehouse icon -->
  <g transform="translate(332, 214.58) scale(0.667)">
    <path d="M18 21V10a1 1 0 0 0-1-1H7a1 1 0 0 0-1 1v11" fill="none" stroke="#8b5cf6" stroke-width="1.75" stroke-linecap="round" stroke-linejoin="round"/>
    <path d="M22 19a2 2 0 0 1-2 2H4a2 2 0 0 1-2-2V8a2 2 0 0 1 1.132-1.803l7.95-3.974a2 2 0 0 1 1.837 0l7.948 3.974A2 2 0 0 1 22 8z" fill="none" stroke="#8b5cf6" stroke-width="1.75" stroke-linecap="round" stroke-linejoin="round"/>
    <path d="M6 13h12" fill="none" stroke="#8b5cf6" stroke-width="1.75" stroke-linecap="round" stroke-linejoin="round"/>
    <path d="M6 17h12" fill="none" stroke="#8b5cf6" stroke-width="1.75" stroke-linecap="round" stroke-linejoin="round"/>
  </g>
  
  <!-- Right side icons (size 16) aligned horizontally -->
  <!-- Church icon -->
  <g transform="translate(468, 214.58) scale(0.667)">
    <path d="M10 9h4" fill="none" stroke="#8b5cf6" stroke-width="1.75" stroke-linecap="round" stroke-linejoin="round"/>
    <path d="M12 7v5" fill="none" stroke="#8b5cf6" stroke-width="1.75" stroke-linecap="round" stroke-linejoin="round"/>
    <path d="M14 22v-4a2 2 0 0 0-4 0v4" fill="none" stroke="#8b5cf6" stroke-width="1.75" stroke-linecap="round" stroke-linejoin="round"/>
    <path d="M18 22V5.618a1 1 0 0 0-.553-.894l-4.553-2.277a2 2 0 0 0-1.788 0L6.553 4.724A1 1 0 0 0 6 5.618V22" fill="none" stroke="#8b5cf6" stroke-width="1.75" stroke-linecap="round" stroke-linejoin="round"/>
    <path d="m18 7 3.447 1.724a1 1 0 0 1 .553.894V20a2 2 0 0 1-2 2H4a2 2 0 0 1-2-2V9.618a1 1 0 0 1 .553-.894L6 7" fill="none" stroke="#8b5cf6" stroke-width="1.75" stroke-linecap="round" stroke-linejoin="round"/>
  </g>
  
  <!-- School icon -->
  <g transform="translate(528, 214.58) scale(0.667)">
    <path d="M14 22v-4a2 2 0 1 0-4 0v4" fill="none" stroke="#8b5cf6" stroke-width="1.75" stroke-linecap="round" stroke-linejoin="round"/>
    <path d="m18 10 3.447 1.724a1 1 0 0 1 .553.894V20a2 2 0 0 1-2 2H4a2 2 0 0 1-2-2v-7.382a1 1 0 0 1 .553-.894L6 10" fill="none" stroke="#8b5cf6" stroke-width="1.75" stroke-linecap="round" stroke-linejoin="round"/>
    <path d="M18 5v17" fill="none" stroke="#8b5cf6" stroke-width="1.75" stroke-linecap="round" stroke-linejoin="round"/>
    <path d="m4 6 7.106-3.553a2 2 0 0 1 1.788 0L20 6" fill="none" stroke="#8b5cf6" stroke-width="1.75" stroke-linecap="round" stroke-linejoin="round"/>
    <path d="M6 5v17" fill="none" stroke="#8b5cf6" stroke-width="1.75" stroke-linecap="round" stroke-linejoin="round"/>
    <circle cx="12" cy="9" r="2" fill="none" stroke="#8b5cf6" stroke-width="1.75"/>
  </g>
  
  <!-- Store icon -->
  <g transform="translate(708, 214.58) scale(0.667)">
    <path d="m2 7 4.41-4.41A2 2 0 0 1 7.83 2h8.34a2 2 0 0 1 1.42.59L22 7" fill="none" stroke="#8b5cf6" stroke-width="1.75" stroke-linecap="round" stroke-linejoin="round"/>
    <path d="M4 12v8a2 2 0 0 0 2 2h12a2 2 0 0 0 2-2v-8" fill="none" stroke="#8b5cf6" stroke-width="1.75" stroke-linecap="round" stroke-linejoin="round"/>
    <path d="M15 22v-4a2 2 0 0 0-2-2h-2a2 2 0 0 0-2 2v4" fill="none" stroke="#8b5cf6" stroke-width="1.75" stroke-linecap="round" stroke-linejoin="round"/>
    <path d="M2 7h20" fill="none" stroke="#8b5cf6" stroke-width="1.75" stroke-linecap="round" stroke-linejoin="round"/>
    <path d="M22 7v3a2 2 0 0 1-2 2a2.7 2.7 0 0 1-1.59-.63.7.7 0 0 0-.82 0A2.7 2.7 0 0 1 16 12a2.7 2.7 0 0 1-1.59-.63.7.7 0 0 0-.82 0A2.7 2.7 0 0 1 12 12a2.7 2.7 0 0 1-1.59-.63.7.7 0 0 0-.82 0A2.7 2.7 0 0 1 8 12a2.7 2.7 0 0 1-1.59-.63.7.7 0 0 0-.82 0A2.7 2.7 0 0 1 4 12a2 2 0 0 1-2-2V7" fill="none" stroke="#8b5cf6" stroke-width="1.75" stroke-linecap="round" stroke-linejoin="round"/>
  </g>
  
  <!-- University icon -->
  <g transform="translate(648, 214.58) scale(0.667)">
    <path d="M14 21v-3a2 2 0 0 0-4 0v3" fill="none" stroke="#8b5cf6" stroke-width="1.75" stroke-linecap="round" stroke-linejoin="round"/>
    <path d="M18 12h.01" fill="none" stroke="#8b5cf6" stroke-width="1.75" stroke-linecap="round" stroke-linejoin="round"/>
    <path d="M18 16h.01" fill="none" stroke="#8b5cf6" stroke-width="1.75" stroke-linecap="round" stroke-linejoin="round"/>
    <path d="M22 7a1 1 0 0 0-1-1h-2a2 2 0 0 1-1.143-.359L13.143 2.36a2 2 0 0 0-2.286-.001L6.143 5.64A2 2 0 0 1 5 6H3a1 1 0 0 0-1 1v12a2 2 0 0 0 2 2h16a2 2 0 0 0 2-2z" fill="none" stroke="#8b5cf6" stroke-width="1.75" stroke-linecap="round" stroke-linejoin="round"/>
    <path d="M6 12h.01" fill="none" stroke="#8b5cf6" stroke-width="1.75" stroke-linecap="round" stroke-linejoin="round"/>
    <path d="M6 16h.01" fill="none" stroke="#8b5cf6" stroke-width="1.75" stroke-linecap="round" stroke-linejoin="round"/>
    <circle cx="12" cy="10" r="2" fill="none" stroke="#8b5cf6" stroke-width="1.75"/>
  </g>
</svg>